<svg id="visual" viewBox="0 0 600 200" width="600" height="200" xmlns="http://www.w3.org/2000/svg" xmlns:xlink="http://www.w3.org/1999/xlink" version="1.1"><rect x="0" y="0" width="600" height="200" fill="#ffffff"></rect><path d="M0 80L75 91L150 85L225 95L300 92L375 65L450 86L525 94L600 73L600 0L525 0L450 0L375 0L300 0L225 0L150 0L75 0L0 0Z" fill="#be43c5"></path><path d="M0 68L75 74L150 61L225 89L300 66L375 73L450 86L525 72L600 78L600 0L525 0L450 0L375 0L300 0L225 0L150 0L75 0L0 0Z" fill="#a668de"></path><path d="M0 69L75 55L150 69L225 72L300 50L375 50L450 70L525 65L600 49L600 0L525 0L450 0L375 0L300 0L225 0L150 0L75 0L0 0Z" fill="#8d83ed"></path><path d="M0 40L75 53L150 50L225 53L300 51L375 62L450 46L525 59L600 51L600 0L525 0L450 0L375 0L300 0L225 0L150 0L75 0L0 0Z" fill="#7a99f4"></path><path d="M0 46L75 51L150 49L225 52L300 49L375 46L450 48L525 52L600 37L600 0L525 0L450 0L375 0L300 0L225 0L150 0L75 0L0 0Z" fill="#74acf3"></path><path d="M0 23L75 26L150 28L225 38L300 35L375 34L450 26L525 32L600 27L600 0L525 0L450 0L375 0L300 0L225 0L150 0L75 0L0 0Z" fill="#7fbbee"></path><path d="M0 28L75 24L150 21L225 28L300 20L375 21L450 29L525 20L600 17L600 0L525 0L450 0L375 0L300 0L225 0L150 0L75 0L0 0Z" fill="#96c9e7"></path><path d="M0 17L75 16L150 12L225 12L300 9L375 12L450 14L525 10L600 13L600 0L525 0L450 0L375 0L300 0L225 0L150 0L75 0L0 0Z" fill="#b4d4e1"></path></svg>