<svg id="visual" viewBox="0 0 600 200" width="600" height="200" xmlns="http://www.w3.org/2000/svg" xmlns:xlink="http://www.w3.org/1999/xlink" version="1.1"><rect x="0" y="0" width="600" height="200" fill="#b13bae"></rect><path d="M0 100L67 77L133 80L200 89L267 81L333 66L400 81L467 72L533 65L600 78L600 0L533 0L467 0L400 0L333 0L267 0L200 0L133 0L67 0L0 0Z" fill="#922285"></path><path d="M0 78L67 62L133 75L200 89L267 75L333 63L400 68L467 57L533 85L600 61L600 0L533 0L467 0L400 0L333 0L267 0L200 0L133 0L67 0L0 0Z" fill="#894aa4"></path><path d="M0 58L67 72L133 50L200 72L267 70L333 50L400 76L467 74L533 48L600 61L600 0L533 0L467 0L400 0L333 0L267 0L200 0L133 0L67 0L0 0Z" fill="#7d68bb"></path><path d="M0 64L67 53L133 41L200 53L267 56L333 61L400 58L467 39L533 65L600 64L600 0L533 0L467 0L400 0L333 0L267 0L200 0L133 0L67 0L0 0Z" fill="#7482cb"></path><path d="M0 52L67 32L133 39L200 39L267 38L333 39L400 41L467 44L533 33L600 50L600 0L533 0L467 0L400 0L333 0L267 0L200 0L133 0L67 0L0 0Z" fill="#7499d4"></path><path d="M0 40L67 40L133 23L200 42L267 23L333 31L400 26L467 33L533 27L600 37L600 0L533 0L467 0L400 0L333 0L267 0L200 0L133 0L67 0L0 0Z" fill="#80afda"></path><path d="M0 27L67 20L133 27L200 17L267 15L333 16L400 30L467 25L533 15L600 22L600 0L533 0L467 0L400 0L333 0L267 0L200 0L133 0L67 0L0 0Z" fill="#97c2dd"></path><path d="M0 15L67 13L133 9L200 12L267 9L333 16L400 17L467 14L533 16L600 14L600 0L533 0L467 0L400 0L333 0L267 0L200 0L133 0L67 0L0 0Z" fill="#b4d4e1"></path></svg>