<svg id="visual" viewBox="0 0 600 200" width="600" height="200" xmlns="http://www.w3.org/2000/svg" xmlns:xlink="http://www.w3.org/1999/xlink" version="1.1"><rect x="0" y="0" width="600" height="200" fill="#0e3049"></rect><path d="M0 51L14.3 53.2C28.7 55.3 57.3 59.7 85.8 58.8C114.3 58 142.7 52 171.2 49.5C199.7 47 228.3 48 257 48.5C285.7 49 314.3 49 343 51.3C371.7 53.7 400.3 58.3 428.8 58.8C457.3 59.3 485.7 55.7 514.2 54.8C542.7 54 571.3 56 585.7 57L600 58L600 0L585.7 0C571.3 0 542.7 0 514.2 0C485.7 0 457.3 0 428.8 0C400.3 0 371.7 0 343 0C314.3 0 285.7 0 257 0C228.3 0 199.7 0 171.2 0C142.7 0 114.3 0 85.8 0C57.3 0 28.7 0 14.3 0L0 0Z" fill="#d769fa"></path><path d="M0 49L14.3 47.3C28.7 45.7 57.3 42.3 85.8 41.8C114.3 41.3 142.7 43.7 171.2 44.7C199.7 45.7 228.3 45.3 257 45.8C285.7 46.3 314.3 47.7 343 44.8C371.7 42 400.3 35 428.8 31.5C457.3 28 485.7 28 514.2 30.5C542.7 33 571.3 38 585.7 40.5L600 43L600 0L585.7 0C571.3 0 542.7 0 514.2 0C485.7 0 457.3 0 428.8 0C400.3 0 371.7 0 343 0C314.3 0 285.7 0 257 0C228.3 0 199.7 0 171.2 0C142.7 0 114.3 0 85.8 0C57.3 0 28.7 0 14.3 0L0 0Z" fill="#cb5ae0"></path><path d="M0 18L14.3 20C28.7 22 57.3 26 85.8 28.5C114.3 31 142.7 32 171.2 31C199.7 30 228.3 27 257 26.7C285.7 26.3 314.3 28.7 343 30.2C371.7 31.7 400.3 32.3 428.8 31.2C457.3 30 485.7 27 514.2 24.8C542.7 22.7 571.3 21.3 585.7 20.7L600 20L600 0L585.7 0C571.3 0 542.7 0 514.2 0C485.7 0 457.3 0 428.8 0C400.3 0 371.7 0 343 0C314.3 0 285.7 0 257 0C228.3 0 199.7 0 171.2 0C142.7 0 114.3 0 85.8 0C57.3 0 28.7 0 14.3 0L0 0Z" fill="#bf4ac6"></path><path d="M0 16L14.3 16.5C28.7 17 57.3 18 85.8 17.3C114.3 16.7 142.7 14.3 171.2 13.7C199.7 13 228.3 14 257 14C285.7 14 314.3 13 343 13.7C371.7 14.3 400.3 16.7 428.8 18.2C457.3 19.7 485.7 20.3 514.2 20.8C542.7 21.3 571.3 21.7 585.7 21.8L600 22L600 0L585.7 0C571.3 0 542.7 0 514.2 0C485.7 0 457.3 0 428.8 0C400.3 0 371.7 0 343 0C314.3 0 285.7 0 257 0C228.3 0 199.7 0 171.2 0C142.7 0 114.3 0 85.8 0C57.3 0 28.7 0 14.3 0L0 0Z" fill="#b13bae"></path></svg>