<svg id="visual" viewBox="0 0 600 200" width="600" height="200" xmlns="http://www.w3.org/2000/svg" xmlns:xlink="http://www.w3.org/1999/xlink" version="1.1"><rect x="0" y="0" width="600" height="200" fill="#ffffff"></rect><path d="M0 122L75 102L150 112L225 111L300 129L375 99L450 97L525 112L600 119L600 201L525 201L450 201L375 201L300 201L225 201L150 201L75 201L0 201Z" fill="#be43c5"></path><path d="M0 121L75 112L150 118L225 118L300 113L375 118L450 138L525 121L600 139L600 201L525 201L450 201L375 201L300 201L225 201L150 201L75 201L0 201Z" fill="#a668de"></path><path d="M0 143L75 130L150 145L225 126L300 150L375 126L450 126L525 133L600 128L600 201L525 201L450 201L375 201L300 201L225 201L150 201L75 201L0 201Z" fill="#8d83ed"></path><path d="M0 148L75 151L150 149L225 139L300 156L375 152L450 137L525 153L600 144L600 201L525 201L450 201L375 201L300 201L225 201L150 201L75 201L0 201Z" fill="#7a99f4"></path><path d="M0 163L75 155L150 156L225 166L300 148L375 153L450 157L525 164L600 151L600 201L525 201L450 201L375 201L300 201L225 201L150 201L75 201L0 201Z" fill="#74acf3"></path><path d="M0 165L75 159L150 173L225 168L300 171L375 159L450 163L525 165L600 157L600 201L525 201L450 201L375 201L300 201L225 201L150 201L75 201L0 201Z" fill="#7fbbee"></path><path d="M0 180L75 177L150 167L225 174L300 168L375 170L450 177L525 169L600 176L600 201L525 201L450 201L375 201L300 201L225 201L150 201L75 201L0 201Z" fill="#96c9e7"></path><path d="M0 180L75 179L150 183L225 189L300 186L375 188L450 192L525 191L600 182L600 201L525 201L450 201L375 201L300 201L225 201L150 201L75 201L0 201Z" fill="#b4d4e1"></path></svg>